<svg xmlns="http://www.w3.org/2000/svg" viewBox="0 0 1024 1024" fill='#000000'>
    <path d="M517.16 351.73c3.88 2.01 6.33 4.18 7.84 8.27.68 5.08.6 8.83-1.75 13.44-3.34 3.81-6.12 6.2-11.3 6.8-5.52.18-8.59-.52-12.95-4.24-.99-1.49-.99-1.49-2.01-3-8.36-.67-16.03 1.75-23.99 4-1.2.33-2.4.66-3.63 1-20.91 6.29-38.6 18.15-54.37 33-.65.59-1.3 1.18-1.97 1.78-21.04 19.74-33.37 47.38-39.03 75.22-.18.73-.35 1.46-.53 2.21-.61 3.67-.65 7.29-.67 10.99v2.41c0 1.69 0 3.38-.01 5.07-.01 2.52-.04 5.04-.07 7.56-.1 14.31 1.42 28.11 6.37 41.63.3.82.6 1.65.91 2.49 13.48 36.02 40.23 64.43 75.03 80.63 10.05 4.45 20.37 7.4 31.12 9.61 1.61.33 3.21.7 4.81 1.08 32.98 6.88 71.17-3.47 98.99-21.59 2.77-1.95 5.44-3.99 8.09-6.1.51-.4 1.02-.8 1.54-1.21 25.76-20.5 43.2-48.57 50.46-80.79.29-1.29.29-1.29.59-2.6 1.5-7.74 1.79-15.5 1.98-23.37l.09-2.67.06-2.4c.29-1.96.29-1.96 2.29-3.96 3.54.54 3.54.54 5 2.01 3.39 35.11-11.12 71.36-33.16 98.21-2.23 2.64-4.52 5.22-6.84 7.79-.7.79-1.4 1.58-2.13 2.39-22.99 24.34-59.27 41.94-92.78 42.97-3.2.05-6.4.05-9.6.03-2.42-.02-4.85 0-7.27.02-14.38.02-28.15-1.84-41.79-6.6l-2.67-.91c-36.83-13.02-67.38-40.2-84.87-75.08-2.15-4.54-4.05-9.15-5.91-13.82l-1.17-2.74c-13.01-32.18-10.38-72.54 2.92-104.11 8.53-19.41 19.65-35.81 34.25-51.15.64-.71 1.29-1.42 1.95-2.14 19.65-20.93 50.54-35.55 78.86-38.61 2.84-.33 2.84-.33 5.19-1.25 1.36-1.97 1.83-3.65 2.4-5.96.82-2.78 2.35-4.49 4.67-6.2 4.76-2.08 10.24-1.76 15.09.11z"/>
    <path d="M551.1 391.73c3.9 2.04 6.35 4.17 7.9 8.27.23 3.02.18 5.98 0 9 .68.09 1.36.18 2.06.28 19.1 4.67 38.89 22.81 49.31 38.99.54.9 1.08 1.8 1.64 2.72.34.54.69 1.09 1.04 1.64 15.88 25.21 21.52 56.3 15 85.51-8.65 32.27-26.6 59.8-55.91 76.95-18.47 10.37-37.57 15.34-58.67 15.28-.76 0-1.52 0-2.3-.01-11.49-.04-22.25-.7-33.21-4.38-.68-.21-1.35-.43-2.05-.65-30.41-9.79-55.13-31.82-69.89-59.98-13.76-27.46-16.22-59.48-6.7-88.69 8-22.97 22.77-48.27 44.64-60.68 2.85-.23 2.85-.23 5-.01.5 2.48.5 2.48 1 5-.89.67-1.79 1.33-2.71 2.02-21.52 16.29-36.07 37.6-42.29 63.98-.3 1.25-.6 2.51-.91 3.8-5.86 26.49-.79 55.1 12.82 78.49 1.94 2.99 3.96 5.86 6.09 8.71.69.92 1.38 1.84 2.09 2.8 18.22 23.28 45.22 38.19 74.54 41.95 27.7 2.89 55.84-4.13 78.37-20.75 4.59-3.73 8.8-7.84 13-12 .68-.62 1.35-1.23 2.05-1.86 18.18-16.81 28.24-44.03 29.27-68.3.8-31.36-8.86-58.31-30.45-81.35-6.54-6.78-13.7-11.85-21.87-16.49-1.69-.97-1.69-.97-3.42-1.96-4.17-2.3-4.17-2.3-8.59-4.04-2.5.86-4.1 2.08-6.25 3.63-3.64 1.82-6.81 2.06-10.75 1.37-4.27-1.65-7.67-3.99-9.99-8-1.88-5.63-1.94-11.09.68-16.44 5.34-5.92 11.74-7.49 19.41-5.84z"/>
    <path d="M510 406c4.28 2.35 7.17 5.47 9 10 .79 5.62.22 10.22-3 15-4.41 4.08-7.82 5.33-13.86 5.3-3.64-.51-6.11-2.28-9.14-4.3v-.7c-13.8 3.64-25.33 9.49-36 19-.76.67-1.52 1.33-2.3 2.02-15.32 14.29-24.64 35.29-26.05 56.09-.55 24.12 7.56 46.64 24.28 64.27 10.56 9.88 24.93 18.13 39.06 21.63.78.2 1.56.41 2.35.61 22.31 4.95 45.54-.52 64.65-12.61 17.73-12.75 28.34-28.9 34-50 .32-1.14.32-1.14.65-2.29 1.82-7.09 1.98-14.43 2.35-21.71 2.38-.62 2.38-.62 5-.99 2.89 2.89 2.34 5.01 2.38 9.06-.16 25.79-12.82 47.06-30.46 65.06-16.88 16.03-41.16 23.61-64.04 23.12-25-.99-48.16-12.33-65.15-30.62-10.02-11.8-16.87-25.69-20.75-40.62-.34-1.29-.34-1.29-.69-2.6-5.3-23.82 1.19-47.96 13.69-68.4 2.45-3.55 5.11-6.79 8-10l1.3-1.45c11.43-12.55 24.8-20.7 40.7-26.55h3c-.1-.82-.21-1.65-.31-2.5.5-5.65 3.35-9.66 7.44-13.5 4.65-1.62 9.02-1.87 13.88-.88zm31-70c1.94 1.06 1.94 1.06 3 3 .75 6.75.75 6.75-1.5 10.5-3.52 2.11-6.49 2.43-10.5 1.5-2.56-2.06-2.56-2.06-4-5-.07-4.26.35-6.24 3.12-9.5 3.79-1.98 5.8-1.63 9.88-.5"/>
    <path d="M507 413c2.88 1.56 2.88 1.56 5 4 .64 3.97.67 6.02-1.62 9.38-2.98 2.04-4.74 2.7-8.38 2.62-2.88-2-2.88-2-5-5-.64-4.02-.65-6.03 1.62-9.44 3.11-2.02 4.71-2.13 8.38-1.56m42-14c1.94 1.12 1.94 1.12 3 3 .5 3.9.58 6.09-1.56 9.44-3.38 2.17-5.5 2.13-9.44 1.56-2.44-1.56-2.44-1.56-4-4-.56-3.5-.56-3.5 0-7 3.69-4.47 6.58-4.5 12-3m-35-41c2.44 1.62 2.44 1.62 4 4 .56 2.94.56 2.94 0 6-2.06 2.94-2.06 2.94-5 5-3.85.07-6-.13-8.94-2.69-1.4-3.05-1.55-4.99-1.06-8.31 2.94-3.53 5.87-3.79 11-3zm28 11c4.71.71 4.71.71 6 2 .1 1.83.13 3.67.12 5.5.01 1 .01 2 .01 3.03C548 382 548 382 547 383c-2.5.12-2.5.12-5 0-1-1-1-1-1.13-3.69.01-1.09.01-2.18.01-3.31.01-1.09.01-2.19.01-3.31-.13-2.69-.13-2.69 1.12-3.69zm21.81 11.19c.72.27 1.44.54 2.19.81.33 1.32.66 2.64 1 4.01-3.87 3.61-3.87 3.61-6 5-2.38-.19-2.38-.19-4-1-.81-1.69-.81-1.69-1-4 3.84-5.08 3.84-5.08 7.81-4.82M523 381c2.19-.31 2.19-.31 5 0 2.81 2.5 2.81 2.5 5 5l-2 4c-3.82-.53-6.06-1.5-9-4-.33-1.65-.67-3.3 0-5z"/>
</svg>
